<svg xmlns="http://www.w3.org/2000/svg" version="1.1" xmlns:xlink="http://www.w3.org/1999/xlink" viewBox="0 0 200 200"><rect width="200" height="200" fill="url('#gradient')"></rect><defs><linearGradient id="gradient" gradientTransform="rotate(45 0.5 0.5)"><stop offset="0%" stop-color="#dee90b"></stop><stop offset="100%" stop-color="#d9e241"></stop></linearGradient></defs><g><g fill="#1b3855" transform="matrix(3.1911357340720223,0,0,3.1911357340720223,6.577157687282295,117.12165155965536)" stroke="#0e5278" stroke-width="0.2"><path d="M6.69-4.82L4.50-4.82L4.50 0L1.07 0L1.07-14.22L6.75-14.22Q8.38-14.22 9.63-13.62Q10.89-13.02 11.58-11.91Q12.27-10.80 12.27-9.39L12.27-9.39Q12.27-7.31 10.78-6.07Q9.29-4.82 6.69-4.82L6.69-4.82ZM4.50-11.57L4.50-7.47L6.75-7.47Q7.74-7.47 8.27-7.97Q8.79-8.47 8.79-9.38L8.79-9.38Q8.79-10.37 8.25-10.97Q7.71-11.56 6.79-11.57L6.79-11.57L4.50-11.57ZM17.41-15L17.41 0L14.11 0L14.11-15L17.41-15ZM28.68 0L25.39 0Q25.21-0.32 25.08-0.95L25.08-0.95Q24.17 0.20 22.54 0.20L22.54 0.20Q21.04 0.20 20-0.71Q18.96-1.61 18.96-2.98L18.96-2.98Q18.96-4.70 20.22-5.58Q21.49-6.46 23.92-6.46L23.92-6.46L24.93-6.46L24.93-7.01Q24.93-8.47 23.67-8.47L23.67-8.47Q22.50-8.47 22.50-7.31L22.50-7.31L19.21-7.31Q19.21-8.85 20.51-9.80Q21.82-10.76 23.84-10.76Q25.86-10.76 27.03-9.78Q28.20-8.79 28.23-7.07L28.23-7.07L28.23-2.39Q28.25-0.94 28.68-0.17L28.68-0.17L28.68 0ZM23.33-2.15L23.33-2.15Q23.95-2.15 24.35-2.41Q24.76-2.68 24.93-3.01L24.93-3.01L24.93-4.70L23.97-4.70Q22.26-4.70 22.26-3.15L22.26-3.15Q22.26-2.71 22.56-2.43Q22.86-2.15 23.33-2.15ZM32.46-10.57L34.13-4.61L35.89-10.57L39.41-10.57L35.11 1.77L34.92 2.22Q34.00 4.27 31.68 4.27L31.68 4.27Q31.04 4.27 30.32 4.07L30.32 4.07L30.32 1.72L30.75 1.72Q31.45 1.72 31.81 1.52Q32.18 1.32 32.35 0.80L32.35 0.80L32.62 0.10L28.95-10.57L32.46-10.57ZM45.25 0.20L45.25 0.20Q42.82 0.20 41.32-1.25Q39.81-2.71 39.81-5.03L39.81-5.03L39.81-5.30Q39.81-6.92 40.42-8.16Q41.02-9.40 42.17-10.08Q43.32-10.76 44.90-10.76L44.90-10.76Q47.13-10.76 48.42-9.38Q49.71-8.00 49.71-5.53L49.71-5.53L49.71-4.25L43.16-4.25Q43.34-3.36 43.94-2.85Q44.53-2.34 45.48-2.34L45.48-2.34Q47.04-2.34 47.92-3.44L47.92-3.44L49.42-1.66Q48.81-0.81 47.68-0.31Q46.55 0.20 45.25 0.20ZM44.88-8.22L44.88-8.22Q43.44-8.22 43.16-6.31L43.16-6.31L46.48-6.31L46.48-6.56Q46.50-7.35 46.08-7.79Q45.66-8.22 44.88-8.22ZM57.48-10.64L57.42-7.59L56.34-7.67Q54.79-7.67 54.35-6.69L54.35-6.69L54.35 0L51.05 0L51.05-10.57L54.14-10.57L54.25-9.21Q55.08-10.76 56.56-10.76L56.56-10.76Q57.09-10.76 57.48-10.64L57.48-10.64Z"></path></g></g></svg>